<svg width="512" height="500" viewBox="0 0 512 500" fill="none" xmlns="http://www.w3.org/2000/svg">
<mask id="mask0_2006_12" style="mask-type:luminance" maskUnits="userSpaceOnUse" x="0" y="0" width="512" height="500">
<path d="M511.076 0H0V500H511.076V0Z" fill="white"/>
</mask>
<g mask="url(#mask0_2006_12)">
<path d="M128.041 228.409L356.276 0L427.682 71.4615L199.448 299.868L128.041 228.409Z" fill="#09090B"/>
<path d="M213.495 142.885L284.88 71.4453L356.288 142.907L284.902 214.346L213.495 142.885ZM142.102 214.332L213.485 142.892L284.893 214.354L213.507 285.793L142.102 214.332Z" fill="#09090B"/>
<path d="M141.971 357.224L213.365 285.773L284.751 357.213L213.355 428.661L141.971 357.224Z" fill="#09090B"/>
<path d="M121.432 336.654L192.826 265.203L356.065 428.562L284.67 500.014L121.432 336.654Z" fill="#09090B"/>
<path d="M-0.0117188 215.128L71.383 143.68L206.196 278.593L134.801 350.043L-0.0117188 215.128Z" fill="#3F3F46"/>
<path d="M70.6738 285.855L142.07 214.406L213.467 285.855L142.072 357.304L70.6738 285.855Z" fill="#3F3F46"/>
<path d="M0 356.587L128.668 227.82L200.064 299.271L71.3947 428.038L0 356.587Z" fill="#3F3F46"/>
<path d="M297.283 229.749L369.08 157.898L467.188 256.079L395.39 327.931L297.283 229.749Z" fill="#09090B"/>
<path d="M353.354 285.857L424.747 214.406L496.145 285.855L424.752 357.307L353.354 285.857Z" fill="#09090B"/>
<path d="M296.961 342.305L392.897 246.297L464.292 317.746L368.356 413.758L296.961 342.305Z" fill="#09090B"/>
</g>
</svg>
